# xmcd CD database file
#
# Track frame offsets:
#	150
#	28681
#	54117
#	71135
#	89200
#	114224
#	135933
#	168214
#	189918
#	215851
#
# Disc length: 2944 seconds
#
# Revision: 0
# Processed by: cddbd v1.5.1PL0 Copyright (c) Steve Scherf et al.
# Submitted via: CDex 1.51
#
DISCID=860b7e0a
DTITLE=José Reinoso - Candombe Influenciado
DYEAR=2004
DGENRE=Jazz
TTITLE0=para acunar a borja
TTITLE1=salsita con luis
TTITLE2=the gypsy
TTITLE3=el inocente
TTITLE4=o grande amor
TTITLE5=nunca tuvo novio/la última curda/golondrinas
TTITLE6=malena jugando
TTITLE7=setembro
TTITLE8=candombe influenciado
TTITLE9=meu silencio
EXTD=YEAR: 2004
EXTT0=
EXTT1=
EXTT2=
EXTT3=
EXTT4=
EXTT5=
EXTT6=
EXTT7=
EXTT8=
EXTT9=
PLAYORDER=
